<svg xmlns="http://www.w3.org/2000/svg" viewBox="0 0 514.99 106.5"><defs><style>.cls-1{fill:#fff;}</style></defs><title>logo_w</title><g id="Layer_2" data-name="Layer 2"><g id="Predeterminada"><path class="cls-1" d="M510.05,85a8.86,8.86,0,0,0-.31-1.12,9.19,9.19,0,0,0-.49-1.13,7.8,7.8,0,0,0-.66-1,7.35,7.35,0,0,0-1.53-1.61,7.55,7.55,0,0,0-1-.68,8.85,8.85,0,0,0-1.34-.63,8.09,8.09,0,0,0-1.68-.43,9.55,9.55,0,0,0-1.94-.08,9.35,9.35,0,0,0-2,.35,8.16,8.16,0,0,0-1.83.77,8.85,8.85,0,0,0-1.62,1.13,8.31,8.31,0,0,0-1.3,1.48,8.2,8.2,0,0,0-.89,1.67,8.43,8.43,0,0,0-.42,1.55,8.87,8.87,0,0,0-.12,1.23,8.71,8.71,0,0,0,0,.9,7.72,7.72,0,0,0,.09.81,7.83,7.83,0,0,0,.19.94,6.85,6.85,0,0,0,.4,1.11,7.3,7.3,0,0,0,.67,1.21,7.79,7.79,0,0,0,.89,1.1,8.67,8.67,0,0,0,1.07.94,6.72,6.72,0,0,0,1.2.75,7,7,0,0,0,1.36.53,8.56,8.56,0,0,0,1.39.28,6.67,6.67,0,0,0,1,0c.26,0,.43,0,.17.5s-1,1.53-1.66,2.56l-2.1,3.09a11.23,11.23,0,0,0-1.55,2.7c-.16.64.23.89.72,1.2l2.25,1.43,5.19-7.65,2.56-3.76c.52-.76.65-1,.85-1.26s.46-.72.75-1.22a18.57,18.57,0,0,0,.84-1.67,11.35,11.35,0,0,0,.61-1.71,10,10,0,0,0,.3-1.62,7.71,7.71,0,0,0,0-1.43A8.75,8.75,0,0,0,510.05,85ZM501.71,92a5.26,5.26,0,1,1,5.15-5.35A5.26,5.26,0,0,1,501.71,92Z"/><path class="cls-1" d="M491.66,95.23a6.79,6.79,0,0,0-.39-1,7.23,7.23,0,0,0-.55-1,7.86,7.86,0,0,0-.73-.91,11.41,11.41,0,0,0-.88-.81,11.73,11.73,0,0,0-1-.7,7.61,7.61,0,0,0,1.54-1.5,6,6,0,0,0,.8-1.5,6.7,6.7,0,0,0,.3-1.22,5.83,5.83,0,0,0,.07-1,7.69,7.69,0,0,0-.06-1,7.93,7.93,0,0,0-.21-.94,6.92,6.92,0,0,0-.37-1,8,8,0,0,0-.67-1.15,7,7,0,0,0-1.11-1.27,8.49,8.49,0,0,0-1.66-1.13,8.32,8.32,0,0,0-1.95-.73,8.68,8.68,0,0,0-2.1-.25,9.09,9.09,0,0,0-4.08.94,7.78,7.78,0,0,0-1.49.94,9,9,0,0,0-1,1,7.6,7.6,0,0,0-.81,1.13,6.18,6.18,0,0,0-.94,3.24,5.56,5.56,0,0,0,.17,1.53,6.88,6.88,0,0,0,.42,1.17,5.85,5.85,0,0,0,.54,1,7.31,7.31,0,0,0,.68.84,4.74,4.74,0,0,0,.6.56c.16.14.28.22.3.28s0,.1-.12.16l-.38.27c-.17.12-.39.29-.63.49a8,8,0,0,0-.74.71,8.24,8.24,0,0,0-.72.91,7.68,7.68,0,0,0-.55,1,8.51,8.51,0,0,0-.4,1.06,9.4,9.4,0,0,0-.23,1.13,8.75,8.75,0,0,0-.07,1.28,7.82,7.82,0,0,0,.49,2.64,9.6,9.6,0,0,0,.44,1c.15.28.29.52.44.75s.31.45.48.67a6.87,6.87,0,0,0,.55.66,7,7,0,0,0,.67.65,8.25,8.25,0,0,0,1,.72,8,8,0,0,0,1.43.68,9.81,9.81,0,0,0,1.85.46,13.7,13.7,0,0,0,2,.15,14.33,14.33,0,0,0,2.07-.17,9.54,9.54,0,0,0,2-.56,8.4,8.4,0,0,0,1.75-1,8.58,8.58,0,0,0,1.36-1.24,9.47,9.47,0,0,0,1-1.36,9.22,9.22,0,0,0,.68-1.42,9,9,0,0,0,.4-1.48,9.86,9.86,0,0,0,.13-1.4,10.14,10.14,0,0,0-.08-1.26A6.62,6.62,0,0,0,491.66,95.23Zm-9.07-13.71c2.32,0,4.85,1.54,4.85,4.13s-2.54,4.12-4.86,4.12-4.86-1.54-4.86-4.13S480.26,81.52,482.59,81.52Zm-.07,21.34c-3,0-6-2.18-5.95-5.44s3.17-5.27,6.16-5.23,6,2.18,5.95,5.45S485.51,102.91,482.52,102.86Z"/><path class="cls-1" d="M471.57,85a8.86,8.86,0,0,0-.31-1.12,9.19,9.19,0,0,0-.49-1.13,8.91,8.91,0,0,0-.65-1,9.47,9.47,0,0,0-.73-.88,7.12,7.12,0,0,0-.81-.73,8.12,8.12,0,0,0-1-.68,9.88,9.88,0,0,0-1.34-.63,8.19,8.19,0,0,0-1.69-.43,9.55,9.55,0,0,0-1.94-.08,9.26,9.26,0,0,0-2,.35,8.24,8.24,0,0,0-1.84.77,9.2,9.2,0,0,0-1.62,1.13A8.31,8.31,0,0,0,455.9,82a8.73,8.73,0,0,0-.89,1.67,7.62,7.62,0,0,0-.41,1.55,11,11,0,0,0-.13,1.23c0,.35,0,.63,0,.9s0,.53.09.81a7.83,7.83,0,0,0,.19.94,8,8,0,0,0,.4,1.11,7.3,7.3,0,0,0,.67,1.21,8.9,8.9,0,0,0,2,2,7.51,7.51,0,0,0,1.2.75,7,7,0,0,0,1.36.53,8.56,8.56,0,0,0,1.39.28,6.67,6.67,0,0,0,1,0c.26,0,.44,0,.17.5s-1,1.53-1.66,2.56l-2.1,3.09a11.23,11.23,0,0,0-1.55,2.7c-.16.64.24.89.72,1.2l2.25,1.43,5.2-7.65,2.55-3.76c.52-.76.65-1,.85-1.26s.46-.72.75-1.22.59-1.09.85-1.67a12.49,12.49,0,0,0,.6-1.71,11.22,11.22,0,0,0,.31-1.62,8.63,8.63,0,0,0,0-1.43A8.75,8.75,0,0,0,471.57,85ZM463.23,92a5.26,5.26,0,1,1,5.16-5.35A5.24,5.24,0,0,1,463.23,92Z"/><path class="cls-1" d="M514.54,55.13c-.52-.61-1-.51-1.64-.19a7.1,7.1,0,0,0-1.33,1c-1.05.9-2.07,1.82-3.08,2.76-2,1.89-4,3.82-6.11,5.66a47,47,0,0,1-4.61,3.7,5.12,5.12,0,0,1-2.2,1c-.12,0-.27.08-.27-.09a2.48,2.48,0,0,1,.33-1.08,39.05,39.05,0,0,1,2-3.73,24.51,24.51,0,0,0,3-6.71,7.93,7.93,0,0,0-.27-4c-.6-2-1.07-3.73-3.42-4.56-4.61-1.61-10.47,2.35-13.43,4.91-3.24,2.8-6.46,5.61-9.79,8.29-2.29,1.85-4.61,3.64-7,5.31a22.82,22.82,0,0,1-2,1.31c-.21.12-.36.43-.67.21s-.21-.24-.09-.41a18.91,18.91,0,0,1,1.5-1.94c2.73-3.39,5.74-6.43,7.37-10.71a5.27,5.27,0,0,0,.35-4,3.52,3.52,0,0,0-3.71-2.39A8.74,8.74,0,0,0,466,50.63a40.78,40.78,0,0,0-6.33,3.93c-3.73,2.71-7.29,5.61-11,8.39a16.43,16.43,0,0,1-2.68,2c-.23.12-.38,0-.38-.23,0-.46.39-.51.62-.74,1.64-1.65,3.23-3.34,4.77-5.09s4.25-4.76,4.92-7.25c.5-1.85-.45-2.56-2.22-2.63a7.63,7.63,0,0,0-5,1.44c-5.35,3.72-10.17,8.12-15.47,11.92a50.29,50.29,0,0,1-10.84,6.36,10,10,0,0,1-4,.88,3,3,0,0,1-1.88-.54,2.88,2.88,0,0,1-1-2.17,3.64,3.64,0,0,1,0-.81c0-.15.12-.15.24-.17.85-.13,1.7-.28,2.54-.48a26.87,26.87,0,0,0,11.8-5.77c2.07-1.77,6.42-6.53,4.41-9.82-1.88-2.87-6.18-1.78-8.58-.9a27.61,27.61,0,0,0-8,4.6c-2.42,1.93-4.59,4.14-7.1,6A53.76,53.76,0,0,1,403,64.4c-.07,0-.13,0-.08-.1,2-2.75,6.34-9.53,3.5-13.41-2.44-3.35-6.38-2.68-9.57-1.39C391,51.88,383.32,60,382.79,66.8a11,11,0,0,0,0,1.62c0,.57.11,1-.46,1.45-1.83,1.29-4.66,2.16-6.67,3-3.14,1.26-6.31,2.45-9.48,3.63C356,80.24,341,85.38,330,86.66a15.41,15.41,0,0,1-5.46,0,2.37,2.37,0,0,1-1.57-.88,2.73,2.73,0,0,1-.28-2.37,20,20,0,0,1,2.4-5.89c4-7.35,9.18-13.68,14.38-20.1,6.14-7.57,12.47-15,18.64-22.51,2.4-2.92,4.78-5.84,7-8.89,1.78-2.42,3.6-4.71,4.63-7.64a4.42,4.42,0,0,0-1.08-5,6.34,6.34,0,0,0-5.42-1.12,10.61,10.61,0,0,0-2.46.88,80.22,80.22,0,0,0-9.43,5.23c-14.16,8.67-27.54,18.41-41,28.09q-10.67,7.7-21.24,15.53-3.89,2.87-7.78,5.76c-.52.39-1,.81-1.59,1.17-.14.08-.24.19-.43.1s-.35-.24-.22-.5a4.38,4.38,0,0,1,.81-1c.79-.87,1.59-1.73,2.38-2.59q7.25-7.89,14.23-16c6.47-7.55,13.14-15.33,18.17-24,1.25-2.16,3.12-5.59,2.86-8.38s-2.64-4.46-5.32-4.66a4,4,0,0,0-1,.05,42.4,42.4,0,0,0-11.24,4.2c-14.08,7-26.61,16-39.34,25-11.91,8.41-23.67,17-35.4,25.67Q220,70.6,214.87,74.46c-.42.31-1.49,1.58-2.13.92a.5.5,0,0,1-.1-.74A15.82,15.82,0,0,1,215.46,72l7.43-6.77c2.71-2.47,5.39-5,8.08-7.47,4.38-4.09,8.94-8,13.35-12.06,4-3.7,8-7.44,11.68-11.48,2.81-3.07,5.92-6.9,7.33-11,1.32-3.82.6-6.19-2.61-8.65a43.34,43.34,0,0,0-8-4.71,85.86,85.86,0,0,0-16.92-5.74,146.4,146.4,0,0,0-22-3.39A214.78,214.78,0,0,0,184.06.35a287.5,287.5,0,0,0-60.7,10.16A342.22,342.22,0,0,0,52.12,39.28C42.57,44.39,33.3,49.9,24.22,55.81Q14.43,62.19,5.13,69.26c-1.37,1-2.75,2.06-4,3.21a3.13,3.13,0,0,0-1,1.21c-.32.81.73,1.73,1.52,1.48a6.8,6.8,0,0,0,1.65-.91c1.23-.79,2.41-1.64,3.61-2.47,3.21-2.22,6.43-4.42,9.69-6.56A416.15,416.15,0,0,1,68.35,36.09a325.82,325.82,0,0,1,78.28-25.82,262.69,262.69,0,0,1,50.29-4.86,182.07,182.07,0,0,1,28.74,2.26c8,1.29,15.67,2.89,23.17,6.1a30.86,30.86,0,0,1,7,3.93c2.7,2.1,1.93,3.6.47,6.13-2.1,3.66-4.92,6.62-7.73,9.67-3.58,3.88-7.33,7.59-11.07,11.31Q226.8,55.48,215.88,65.94c-8.18,7.85-16.53,15.52-24.58,23.51-1.25,1.24-3.06,2.93-2,5a2.29,2.29,0,0,0,2.52,1.44,4.83,4.83,0,0,0,2.29-.9c1.69-1,3.3-2.12,4.91-3.24,4.91-3.43,9.76-6.94,14.62-10.45C228.4,70.66,243.18,60,258.17,49.56,270,41.34,281.93,33.28,294.42,26c4.5-2.6,8.92-5.19,13.91-6.87.91-.3,2,0,1.8,1.13a14,14,0,0,1-1.38,2.27c-2.64,4-5.56,7.77-8.51,11.53C294.29,41.68,288.05,49,281.7,56.25Q274,65,266,73.53c-3.78,4-7.66,7.93-11.41,12a9.11,9.11,0,0,0-1.47,2c-1.15,2.28-.42,4.84,2.37,5a6.07,6.07,0,0,0,3.63-1.12c.88-.54,1.69-1.17,2.53-1.78,3.92-2.85,7.82-5.73,11.73-8.59Q291.06,68,308.73,55.1c11.79-8.64,23.58-17.27,35.6-25.59a177.66,177.66,0,0,1,15.43-10,20.79,20.79,0,0,1,3-1.43c.21-.07.61-.4.59,0-.08,1.33-1.38,3-2,3.92-5.21,8-11.57,15-17.55,22.28S331.73,59,326.42,67A72.73,72.73,0,0,0,320.56,77a20.37,20.37,0,0,0-2.26,7.86c-.19,4.9,3.21,6.75,7.58,6.92,8.1.32,19.8-3.37,27.11-5.87A329,329,0,0,0,385,73l.43-.2.14.07c2.21,1.17,4.15,1,6.43.43a14,14,0,0,0,4-1.69c.82-.51,1.5-1.22,2.37-1.68,2.33-1.23,4.88-1.89,7.22-3.12,1.15-.6,2.27-1.25,3.37-2,.4-.26.79-.54,1.2-.78.13-.07.33-.32.38-.07.11.53-.16,1-.21,1.44a8.4,8.4,0,0,0,.1,2.4,8,8,0,0,0,1.73,3.81c2.18,2.58,5.24,2.32,8,1.48A33.51,33.51,0,0,0,428.64,69c4.93-3.16,9.34-7,14-10.47,2.15-1.62,4.21-3.36,6.5-4.81.32-.2,1.07-.64.67-.12a21.88,21.88,0,0,1-1.87,2c-1.91,1.91-3.89,3.75-5.79,5.68s-5.15,5.16-6.09,8c-.61,1.83-.09,3.7,2,4.09,1.61.3,2.64-.39,3.85-1.19,3.39-2.22,6.65-4.62,10-7s9.44-6.67,13.44-8.23a7.53,7.53,0,0,1,1.62-.47c.11,0,.29-.2.32,0s-.08.19-.13.28c-.21.35-.45.69-.69,1-2,2.8-4.31,5.28-6.25,8.09A10.91,10.91,0,0,0,458,70.46a2.39,2.39,0,0,0,.27,1.91c1.18,1.75,3.8,1.19,5.3.55,4-1.7,7.1-4.39,10.34-7.07.24-.2,1-1,.81-.45a10.3,10.3,0,0,0-.45,1.5,6.29,6.29,0,0,0,.54,4.34c1.43,2.84,4.16,2.79,6.68,1.56,3-1.46,8-6.25,10.31-8.39.05,0,.12-.22.14-.11s-.1.24-.15.35c-.3.67-.59,1.33-.86,2a7.29,7.29,0,0,0-.63,4.47c.93,4.15,5.63,2.2,8.16.55,5.09-3.3,9-7.75,13.26-11.86.74-.71,1.49-1.42,2.26-2.1a3.39,3.39,0,0,0,.83-.86A1.33,1.33,0,0,0,514.54,55.13ZM416,62.78a7,7,0,0,1,1.1-1.81l1.48-1.82a15.56,15.56,0,0,1,1.63-1.73L422,55.78a16.31,16.31,0,0,1,1.86-1.48L425.79,53a15.14,15.14,0,0,1,1.75-1.06l1.59-.8a5,5,0,0,1,1.35-.48l1.1-.17q.56-.09.72.6a2.63,2.63,0,0,1-.31,2l-1.08,1.87a7.86,7.86,0,0,1-1.63,1.92l-2.18,2a12.88,12.88,0,0,1-2.69,1.82l-3.2,1.67a11.46,11.46,0,0,1-3.59,1.15C416.3,63.58,415.76,63.39,416,62.78ZM401.6,58.66a13.08,13.08,0,0,1-1.27,2l-1.61,2.12a21.58,21.58,0,0,1-1.65,2l-1.71,1.82a13.57,13.57,0,0,1-1.67,1.53l-1.64,1.26a3.64,3.64,0,0,1-1.39.74l-1.13.22a1.12,1.12,0,0,1-.92-.16l-.69-.55a1.09,1.09,0,0,1-.39-.82l-.09-1.12a3.55,3.55,0,0,1,.22-1.34l.53-1.58a7.9,7.9,0,0,1,.88-1.74c.41-.64,1-1.58,1.85-2.84a15.49,15.49,0,0,1,2.31-2.88l2.16-2a8.85,8.85,0,0,1,1.91-1.42L399,53a3.76,3.76,0,0,1,1.36-.44l1.08,0a2,2,0,0,1,.81.08c.74.3,1.08.68,1,1.14l-.15,1.4a5,5,0,0,1-.54,1.64C402.22,57.41,401.91,58,401.6,58.66Zm90.82-.3c-3.53,2.85-6.93,5.86-10.61,8.54-.73.54-2.93,2.24-4,2.33s-.64-1.2-.36-1.78a24.48,24.48,0,0,1,3.89-5.56A48.13,48.13,0,0,1,491.58,53c1.13-.72,2.1-1.46,3.59-1.37,1,.06,1.66,1.24,1.82,2s-.25,1.24-.81,1.72C495,56.41,493.67,57.35,492.42,58.36Z"/><polygon class="cls-1" points="437.77 83.06 442.34 83.06 442.34 105.53 446.54 105.53 446.54 78.86 440.33 78.86 437.77 83.06"/></g></g></svg>